<?xml version="1.0" standalone="no"?>
<!DOCTYPE svg PUBLIC "-//W3C//DTD SVG 20010904//EN"
 "http://www.w3.org/TR/2001/REC-SVG-20010904/DTD/svg10.dtd">
<svg version="1.0" xmlns="http://www.w3.org/2000/svg"
 width="2675.000000pt" height="2675.000000pt" viewBox="0 0 2675.000000 2675.000000"
 preserveAspectRatio="xMidYMid meet">
<metadata>
Created by potrace 1.14, written by Peter Selinger 2001-2017
</metadata>
<g transform="translate(0.000000,2675.000000) scale(0.100000,-0.100000)"
fill="#000000" stroke="none">
<path d="M13237 26743 c-1 0 -66 -4 -144 -7 -78 -3 -156 -8 -175 -10 -18 -3
-57 -7 -87 -11 -29 -3 -85 -10 -125 -16 -39 -6 -87 -13 -106 -15 -28 -4 -264
-51 -341 -69 -191 -43 -596 -178 -766 -256 -23 -10 -45 -19 -49 -19 -4 0 -80
-36 -168 -79 -419 -206 -683 -387 -1035 -710 -117 -107 -175 -165 -254 -254
-34 -39 -69 -77 -78 -86 -49 -49 -262 -332 -314 -418 -160 -262 -189 -314
-264 -468 -71 -146 -164 -373 -215 -529 -67 -198 -146 -519 -172 -691 -3 -26
-14 -94 -20 -125 -2 -14 -6 -50 -9 -80 -4 -30 -8 -66 -10 -80 -29 -193 -34
-651 -10 -907 13 -135 16 -170 20 -193 2 -14 7 -45 10 -70 6 -42 30 -190 39
-235 26 -130 53 -247 82 -348 19 -67 37 -129 39 -137 7 -27 73 -214 95 -270
12 -30 28 -72 36 -92 50 -136 189 -411 296 -588 247 -408 577 -778 937 -1053
42 -32 83 -63 91 -70 26 -21 243 -163 290 -190 25 -14 70 -39 100 -57 383
-216 920 -395 1400 -464 100 -14 137 -19 240 -31 124 -14 280 -20 525 -20 347
0 516 11 810 51 171 23 177 24 235 35 30 6 71 12 90 15 19 2 42 7 50 9 8 2 30
7 48 10 18 3 65 12 105 21 39 9 81 17 92 19 11 1 82 19 157 39 801 213 1496
689 2015 1381 183 245 335 506 489 840 55 120 188 486 200 552 2 12 8 33 13
45 9 24 66 252 75 298 3 14 12 61 20 105 9 44 18 98 21 120 2 22 7 51 9 65 10
53 19 124 31 245 24 230 24 720 1 865 -3 14 -7 55 -11 92 -3 37 -8 77 -10 90
-2 13 -6 41 -9 63 -11 92 -61 341 -91 455 -27 101 -42 153 -75 255 -37 116
-97 279 -124 340 -8 17 -28 64 -46 105 -46 105 -157 317 -225 430 -50 82 -182
283 -206 314 -5 6 -45 58 -90 116 -318 407 -741 779 -1214 1065 -44 26 -90 54
-102 62 -13 7 -26 14 -30 14 -5 0 -15 6 -23 14 -26 22 -329 168 -455 219 -195
79 -562 193 -680 211 -11 2 -85 15 -165 28 -80 14 -176 29 -215 32 -38 4 -79
9 -90 11 -33 6 -453 22 -458 17z m2688 -1027 c48 -78 33 -63 -49 48 -36 49
-66 97 -66 105 0 17 55 -56 115 -153z m-1970 -1666 c-3 -5 -12 -10 -18 -10 -7
0 -6 4 3 10 19 12 23 12 15 0z m-125 -55 c-14 -8 -29 -14 -35 -14 -5 0 1 6 15
14 14 8 30 14 35 14 6 0 -1 -6 -15 -14z m-70 -29 c-14 -7 -79 -35 -145 -61
-66 -26 -133 -53 -150 -60 -16 -7 -63 -25 -103 -39 -40 -14 -85 -33 -100 -41
l-27 -14 30 -1 c45 -2 138 -20 220 -42 202 -54 412 -151 545 -251 164 -124
306 -298 384 -470 33 -71 46 -103 52 -122 19 -58 44 -152 48 -178 3 -17 8 -42
10 -55 69 -336 -62 -872 -247 -1009 -224 -167 -526 -306 -737 -338 -203 -31
-360 -28 -514 11 -219 56 -385 152 -556 324 -197 196 -338 455 -391 715 -22
110 -15 381 12 452 5 13 11 37 14 54 20 112 143 346 263 499 52 66 219 230
235 230 17 0 211 62 472 150 267 91 352 122 535 196 150 60 202 77 150 50z
m1693 -891 c-3 -9 -8 -14 -10 -11 -3 3 -2 9 2 15 9 16 15 13 8 -4z m980 -860
c-3 -9 -8 -14 -10 -11 -3 3 -2 9 2 15 9 16 15 13 8 -4z m-42 -112 c-12 -20
-14 -14 -5 12 4 9 9 14 11 11 3 -2 0 -13 -6 -23z m-30 -77 c-14 -36 -22 -33
-9 5 6 16 12 28 14 26 3 -2 0 -16 -5 -31z m-33 -71 c-6 -14 -13 -23 -15 -21
-5 5 15 46 22 46 3 0 -1 -11 -7 -25z m-45 -100 c-9 -19 -18 -33 -21 -31 -4 5
26 66 33 66 3 0 -3 -16 -12 -35z m-30 -60 c-3 -9 -8 -14 -10 -11 -3 3 -2 9 2
15 9 16 15 13 8 -4z m-28 -55 c-9 -16 -18 -30 -21 -30 -2 0 2 14 11 30 9 17
18 30 21 30 2 0 -2 -13 -11 -30z m-37 -65 c-6 -14 -13 -23 -15 -21 -5 5 15 46
22 46 3 0 -1 -11 -7 -25z m-53 -95 c-9 -16 -18 -30 -21 -30 -2 0 2 14 11 30 9
17 18 30 21 30 2 0 -2 -13 -11 -30z m-85 -140 c-6 -11 -13 -20 -16 -20 -2 0 0
9 6 20 6 11 13 20 16 20 2 0 0 -9 -6 -20z"/>
<path d="M13207 16793 c-1 -1 -40 -4 -87 -7 -101 -7 -185 -15 -220 -21 -14 -3
-43 -7 -65 -11 -113 -16 -338 -72 -480 -119 -276 -91 -543 -217 -785 -370
-105 -67 -273 -183 -319 -221 -9 -7 -55 -44 -102 -81 -47 -38 -93 -75 -101
-83 -8 -8 -44 -40 -79 -70 -99 -84 -383 -372 -500 -505 -177 -203 -420 -515
-518 -665 -20 -30 -39 -57 -42 -60 -17 -13 -389 -602 -389 -615 0 -2 -19 -36
-43 -77 -24 -40 -59 -102 -79 -138 -20 -36 -47 -85 -60 -110 -50 -91 -137
-257 -177 -340 -41 -83 -50 -101 -71 -137 -5 -10 -33 -67 -61 -128 -28 -60
-69 -148 -91 -195 -54 -116 -119 -259 -123 -270 -4 -13 -27 -66 -50 -116 -14
-30 -25 -57 -25 -59 0 -2 -11 -28 -24 -57 -14 -29 -64 -150 -111 -268 -47
-118 -90 -224 -95 -235 -4 -11 -19 -49 -33 -85 -62 -157 -129 -327 -137 -345
-4 -11 -128 -321 -275 -690 -147 -368 -273 -683 -281 -700 -7 -16 -26 -64 -42
-105 -16 -41 -69 -172 -116 -290 -48 -118 -101 -249 -118 -290 -16 -41 -34
-86 -40 -100 -6 -14 -14 -34 -19 -45 -5 -11 -40 -99 -79 -195 -91 -223 -163
-400 -295 -725 -58 -143 -113 -278 -122 -300 -8 -22 -22 -53 -29 -70 -7 -16
-22 -55 -34 -85 -12 -30 -27 -66 -33 -80 -5 -14 -11 -29 -13 -35 -3 -12 -160
-396 -179 -440 -7 -16 -23 -55 -34 -85 -12 -30 -26 -64 -31 -75 -5 -11 -43
-105 -85 -210 -42 -104 -79 -199 -84 -210 -95 -226 -389 -975 -546 -1390 -31
-82 -63 -166 -71 -185 -17 -44 -135 -362 -138 -375 -2 -5 -6 -17 -9 -25 -41
-94 -250 -722 -328 -985 -58 -192 -161 -582 -174 -655 -3 -19 -12 -62 -20 -95
-7 -33 -16 -80 -20 -105 -4 -24 -8 -47 -10 -50 -1 -3 -6 -27 -9 -55 -4 -27 -9
-57 -11 -65 -2 -8 -6 -42 -10 -74 -3 -32 -7 -62 -9 -65 -10 -15 -21 -232 -21
-401 0 -169 7 -287 21 -365 49 -277 131 -493 266 -701 49 -77 48 -75 134 -179
103 -125 236 -255 374 -365 24 -19 48 -40 54 -45 6 -6 43 -33 81 -61 252 -185
470 -282 720 -321 63 -10 311 -10 390 -1 318 39 686 201 1073 473 67 46 129
91 139 99 88 70 258 210 280 230 15 13 39 34 53 46 309 266 780 759 1250 1310
105 124 204 239 218 255 15 17 56 66 92 110 35 44 67 82 70 85 3 3 29 34 59
70 29 36 70 85 91 110 21 25 100 122 176 215 76 94 149 181 161 195 13 14 23
28 23 32 0 14 533 323 840 487 797 425 1614 730 2190 817 25 3 52 8 61 9 9 2
38 6 65 9 27 4 65 9 84 11 183 24 513 24 690 -1 122 -18 160 -25 261 -50 684
-169 1216 -646 1678 -1504 51 -94 218 -430 261 -525 44 -96 269 -551 314 -632
468 -863 973 -1428 1529 -1712 203 -104 412 -179 577 -206 19 -3 53 -10 75
-15 80 -18 194 -25 385 -25 264 0 405 17 670 80 453 109 820 343 1014 647 86
136 161 320 182 448 3 19 7 37 9 40 2 3 7 33 10 65 4 33 9 69 11 80 6 29 5
323 -1 372 -2 23 -6 54 -9 70 -2 15 -10 62 -16 103 -24 154 -88 388 -159 580
-89 242 -257 587 -395 815 -25 42 -46 78 -46 80 0 2 -13 24 -29 47 -15 24 -64
97 -107 163 -77 118 -242 355 -254 365 -3 3 -42 52 -87 110 -44 58 -138 173
-208 255 -69 83 -98 120 -63 84 84 -87 154 -165 173 -192 8 -11 16 -19 19 -16
2 2 -41 78 -95 169 -54 91 -107 180 -116 198 -18 32 -178 294 -238 387 -18 28
-58 91 -89 140 -60 95 -87 137 -108 170 -55 84 -375 562 -383 572 -5 6 -30 41
-55 78 -45 65 -326 461 -342 480 -5 6 -61 80 -126 165 -125 167 -135 179 -258
334 -44 55 -115 148 -158 206 -67 90 -120 155 -231 289 -17 22 -71 83 -215
246 -19 22 -123 128 -230 235 -482 483 -979 852 -1475 1096 -136 66 -389 175
-440 188 -5 2 -17 6 -25 9 -88 35 -419 117 -535 133 -54 7 -122 17 -139 20
-32 6 -248 17 -321 16 -78 -1 -254 -11 -300 -17 -156 -22 -236 -35 -280 -47
-22 -5 -49 -12 -60 -14 -45 -8 -257 -74 -350 -109 -122 -46 -372 -167 -484
-235 -45 -27 -84 -50 -86 -50 -5 0 -230 -156 -275 -190 -69 -53 -294 -241
-354 -297 -35 -32 -116 -94 -181 -138 -142 -97 -372 -266 -657 -481 -505 -381
-837 -588 -1098 -684 -161 -59 -194 -57 -263 19 -63 70 -93 145 -113 291 -12
84 -7 297 12 428 2 17 6 49 9 70 33 240 69 377 175 657 40 106 127 354 135
385 6 21 294 878 361 1074 197 570 231 654 299 732 6 6 44 53 85 104 134 166
272 335 279 340 3 3 24 28 46 55 21 28 42 52 45 55 3 3 39 46 80 95 41 50 80
95 86 100 5 6 39 44 74 85 243 282 472 531 696 755 272 272 329 319 599 500
257 172 482 271 705 310 40 7 195 8 225 2 11 -3 40 -8 65 -12 50 -8 188 -66
235 -99 49 -34 147 -118 181 -156 65 -72 112 -136 171 -235 28 -46 101 -196
132 -270 18 -44 39 -93 46 -110 17 -39 93 -286 111 -360 1 -5 12 -48 23 -95
12 -47 28 -119 37 -160 103 -507 470 -920 1054 -1186 284 -129 609 -217 920
-249 24 -3 67 -7 95 -11 51 -6 372 -6 455 0 62 5 144 15 212 27 32 6 70 12 85
15 16 2 76 18 135 34 244 69 437 172 586 314 185 176 273 389 273 663 0 68 -2
126 -4 130 -3 5 -8 30 -12 58 -31 236 -179 564 -402 893 -70 103 -251 344
-272 362 -41 35 -108 143 -195 315 -58 116 -121 237 -139 270 -18 33 -48 87
-67 120 -18 33 -41 72 -51 87 -11 14 -19 28 -19 31 0 11 -149 249 -264 422
-413 623 -902 1181 -1336 1526 -63 50 -122 96 -130 103 -9 6 -38 27 -65 46
-41 28 -235 173 -270 203 -20 17 -192 139 -275 196 -285 194 -589 361 -903
495 -59 25 -114 46 -120 46 -7 0 -17 4 -22 9 -24 22 -492 160 -599 176 -21 3
-41 7 -45 9 -3 2 -30 7 -60 11 -30 4 -62 8 -72 10 -107 21 -314 37 -497 39
-68 0 -124 0 -125 -1z"/>
</g>
</svg>
