<?xml version="1.0" encoding="UTF-8"?>
<svg xmlns="http://www.w3.org/2000/svg" xmlns:xlink="http://www.w3.org/1999/xlink" viewBox="0 0 64 64">
  <defs>
    <style>
      .cls-1 {
        fill: #fff;
      }

      .cls-2 {
        fill: #0e4e4e;
      }

      .cls-3 {
        fill: rgba(114, 170, 170, .25);
      }

      .cls-4 {
        fill: url(#radial-gradient);
      }
    </style>
    <radialGradient id="radial-gradient" cx="40.99" cy="19.33" fx="48.23" fy="10.03" r="33.07" gradientUnits="userSpaceOnUse">
      <stop offset=".11" stop-color="#72aaaa"/>
      <stop offset=".24" stop-color="#608f8f" stop-opacity=".84"/>
      <stop offset="1" stop-color="#000" stop-opacity="0"/>
    </radialGradient>
  </defs>
  <g id="Ellipse_1_Image" data-name="Ellipse 1 Image">
    <g id="Layer_5" data-name="Layer 5">
      <circle class="cls-2" cx="32" cy="32" r="32"/>
      <path class="cls-3" d="m20.47,4.93c-5.5,9.68,9.08,15.91,15.91,21.1,6.98,5.29,16,16.76,24.14,9.48,5.11-4.58.99-21.01-9.59-28.76C40.73-.72,23.83-.98,20.47,4.93Z"/>
      <path class="cls-4" d="m20.47,4.93c-5.5,9.68,9.08,15.91,15.91,21.1,6.98,5.29,16,16.76,24.14,9.48,5.11-4.58.99-21.01-9.59-28.76C40.73-.72,23.83-.98,20.47,4.93Z"/>
    </g>
  </g>
  <g id="github">
    <path id="twitter" class="cls-1" d="m40.42,23.56c-.62-.88-1.88-1.61-3.62-1.61-3.1,0-4.89,1.55-4.89,4.01s-.95,2.18-.95,2.18l-2.67-.15s-4.49-4.87-8.13-4.87c0,0-1.34,3.32,1.87,6.69,0,0-1.35.11-2.15-.43s1.67,4.76,3.65,5.35h-1.87s1.55,2.78,4.71,4.07c0,0-2.03,1.28-6.26,1.28,0,0,.32,2.35,6.95,2.35s14.78-3.98,14.78-15.48l2.03-1.71-2.13-.13,1.36-2.13-2.69.57Z"/>
  </g>
</svg>