<?xml version="1.0" encoding="UTF-8"?>
<svg id="Layer_10" data-name="Layer 10" xmlns="http://www.w3.org/2000/svg" xmlns:xlink="http://www.w3.org/1999/xlink" viewBox="0 0 1024 1024">
  <defs>
    <style>
      .cls-1 {
        fill: #0b2d35;
        stroke: #231f20;
        stroke-miterlimit: 10;
        stroke-width: .25px;
      }

      .cls-2 {
        fill: url(#New_Gradient_Swatch_2);
      }

      .cls-3 {
        fill: url(#New_Gradient_Swatch_3);
      }

      .cls-4 {
        fill: url(#radial-gradient);
      }

      .cls-5 {
        fill: url(#New_Gradient_Swatch_2-5);
      }

      .cls-6 {
        fill: url(#New_Gradient_Swatch_2-2);
      }

      .cls-7 {
        fill: url(#New_Gradient_Swatch_2-4);
      }

      .cls-8 {
        fill: url(#New_Gradient_Swatch_2-3);
      }

      .cls-9 {
        fill: url(#New_Gradient_Swatch_3-2);
      }

      .cls-10 {
        fill: url(#New_Gradient_Swatch_3-3);
      }
    </style>
    <radialGradient id="New_Gradient_Swatch_2" data-name="New Gradient Swatch 2" cx="580.9" cy="637.36" fx="580.9" fy="637.36" r="109.99" gradientUnits="userSpaceOnUse">
      <stop offset="0" stop-color="#89d2d9"/>
      <stop offset="1" stop-color="#000"/>
    </radialGradient>
    <radialGradient id="New_Gradient_Swatch_3" data-name="New Gradient Swatch 3" cx="432.12" cy="501.19" fx="432.12" fy="501.19" r="252.84" gradientUnits="userSpaceOnUse">
      <stop offset="0" stop-color="#fffef8"/>
      <stop offset=".48" stop-color="#c2e7ee"/>
      <stop offset=".59" stop-color="#b5e2ec"/>
      <stop offset="1" stop-color="#89d2d9"/>
    </radialGradient>
    <radialGradient id="New_Gradient_Swatch_3-2" data-name="New Gradient Swatch 3" cx="608.79" cy="450.05" fx="608.79" fy="450.05" r="231.88" xlink:href="#New_Gradient_Swatch_3"/>
    <radialGradient id="New_Gradient_Swatch_2-2" data-name="New Gradient Swatch 2" cx="557.03" cy="422.52" fx="557.03" fy="422.52" r="76.75" xlink:href="#New_Gradient_Swatch_2"/>
    <radialGradient id="New_Gradient_Swatch_3-3" data-name="New Gradient Swatch 3" cx="407.85" cy="129.4" fx="407.85" fy="129.4" r="228.87" xlink:href="#New_Gradient_Swatch_3"/>
    <radialGradient id="New_Gradient_Swatch_2-3" data-name="New Gradient Swatch 2" cx="516.76" cy="173.82" fx="516.76" fy="173.82" r="73.56" xlink:href="#New_Gradient_Swatch_2"/>
    <radialGradient id="radial-gradient" cx="568.99" cy="99.31" fx="568.99" fy="99.31" r="115.53" gradientUnits="userSpaceOnUse">
      <stop offset="0" stop-color="#fffef8"/>
      <stop offset=".48" stop-color="#c2e6ee"/>
      <stop offset=".49" stop-color="#c1e6ee"/>
      <stop offset=".59" stop-color="#b5e2ec"/>
      <stop offset="1" stop-color="#89d2d9"/>
    </radialGradient>
    <radialGradient id="New_Gradient_Swatch_2-4" data-name="New Gradient Swatch 2" cx="571.9" cy="85.72" fx="602.21" fy=".99" r="89.99" xlink:href="#New_Gradient_Swatch_2"/>
    <radialGradient id="New_Gradient_Swatch_2-5" data-name="New Gradient Swatch 2" cx="-167.98" cy="273.13" fx="-167.98" fy="273.13" r="378.8" gradientTransform="translate(581.13 226.02) scale(.5 1)" xlink:href="#New_Gradient_Swatch_2"/>
  </defs>
  <g>
    <path class="cls-2" d="m450.1,640.97c102.84-62.85,128.67-20.96,147.51,19.65,16.8,36.24,40.82,70.42,85.8,58.51,33.7-8.92,37.64-41.49,9.9-83.76-41.69-63.53-140.68-114.96-191.15-56.79-42.45,48.94-52.06,62.39-52.06,62.39Z"/>
    <path class="cls-3" d="m631.76,414.54c-34.99-72.8-154.94-183.57-235.74,21.36-80.13,203.24-108.29,241.34-59.98,276.15,65.31,47.06,142.45-155.88,219.08-156.67,74.36-.77,128.28,65.68,128.28,65.68,0,0-31.05-55.51-65.81-89.88-49.15-48.59-86.63-35.14-131.62-2.7-13.14,9.47-66.29,55.05-41.45-8.07,11.38-28.92,31.83-111.77,68.94-135.94,53.6-34.92,118.29,30.07,118.29,30.07Z"/>
    <path class="cls-9" d="m591.66,357.13c-41.09-39.79-109.07-45.24-178.96,134.35-69.89,179.59-11.65,158.23,65.04,74.75,76.69-83.48,123.11-46.5,159.6-13.06,0,0-69.21-100.39-141.9-31.28-75.23,71.52-57.72,7.97-34.2-52.73,30.09-77.66,71.96-132.39,137.04-82.74,30.47,23.25,33.48,28.12,33.48,28.12,0,0-13.76-31.9-40.1-57.4Z"/>
    <path class="cls-6" d="m463.34,466.2c34.52-111.6,102.09-127.65,168.42-51.67,66.34,75.98-61.8,79.86-72.48,28.41-10.68-51.45-35.85-36.89-50.6-26.21-14.75,10.68-45.35,49.47-45.35,49.47Z"/>
    <path class="cls-10" d="m441.02,104.75c-71.91,58.33-38.26,208.89,98.7,178.63,78.18-17.27,101.84-132.03,30.53-183.5,0,0,45.1,58.39.18,115.3-29.71,37.65-87.4,38.44-120.33,5.5-57.3-57.31-9.08-115.93-9.08-115.93Z"/>
    <path class="cls-8" d="m493.03,156.06c-60.29,14.9-54.58,56.28-43.02,67.02,31.75,29.5,82.31,34.47,115.62-2.4,27.41-30.33,37.57-78.39,4.61-119.83,0,0,16.38,42.11-23.86,89.8-23.02,27.27-48.7,25.6-60.91,6.06-14.55-23.27,7.56-40.65,7.56-40.65Z"/>
    <path class="cls-4" d="m570.25,99.89c-53.67-39.65-111.74-11.2-129.23,4.87-36.08,33.14-20.12,99.52,9,118.33,0,0-31.52-44.85,41-66.41,90.25-26.84,79.22-56.78,79.22-56.78Z"/>
    <path class="cls-7" d="m534.91,201.79c10.26-15.07,7.29-46.1-26.22-50.43,0,0,67.55-22.85,61.56-51.47,0,0,9.59,27.73-3.96,58.49s-31.38,43.41-31.38,43.41Z"/>
  </g>
  <rect class="cls-5" x="506.06" y="499.09" width="11.89" height="587.5" transform="translate(-280.84 1304.84) rotate(-90)"/>
  <g>
    <path class="cls-1" d="m195.61,940.23c-3.9,1.4-11.6,3.7-20.7,3.7-10.2,0-18.6-2.6-25.2-8.9-5.8-5.6-9.4-14.6-9.4-25.1.1-20.1,13.9-34.8,36.5-34.8,7.8,0,13.9,1.7,16.8,3.1l-2.1,7.1c-3.6-1.6-8.1-2.9-14.9-2.9-16.4,0-27.1,10.2-27.1,27.1s10.3,27.2,26,27.2c5.7,0,9.6-.8,11.6-1.8v-20.1h-13.7v-7h22.2v32.4Z"/>
    <path class="cls-1" d="m208.9,876.73c4.4-.9,10.7-1.4,16.7-1.4,9.3,0,15.3,1.7,19.5,5.5,3.4,3,5.3,7.6,5.3,12.8,0,8.9-5.6,14.8-12.7,17.2v.3c5.2,1.8,8.3,6.6,9.9,13.6,2.2,9.4,3.8,15.9,5.2,18.5h-9c-1.1-1.9-2.6-7.7-4.5-16.1-2-9.3-5.6-12.8-13.5-13.1h-8.2v29.2h-8.7v-66.5Zm8.7,30.7h8.9c9.3,0,15.2-5.1,15.2-12.8,0-8.7-6.3-12.5-15.5-12.6-4.2,0-7.2.4-8.6.8v24.6Z"/>
    <path class="cls-1" d="m274.1,922.03l-7,21.2h-9l22.9-67.4h10.5l23,67.4h-9.3l-7.2-21.2h-23.9Zm22.1-6.8l-6.6-19.4c-1.5-4.4-2.5-8.4-3.5-12.3h-.2c-1,4-2.1,8.1-3.4,12.2l-6.6,19.5h20.3Z"/>
    <path class="cls-1" d="m324.4,876.63c4.2-.7,9.7-1.3,16.7-1.3,8.6,0,14.9,2,18.9,5.6,3.7,3.2,5.9,8.1,5.9,14.1s-1.8,10.9-5.2,14.4c-4.6,4.9-12.1,7.4-20.6,7.4-2.6,0-5-.1-7-.6v27h-8.7v-66.6Zm8.7,32.5c1.9.5,4.3.7,7.2.7,10.5,0,16.9-5.1,16.9-14.4s-6.3-13.2-15.9-13.2c-3.8,0-6.7.3-8.2.7v26.2Z"/>
    <path class="cls-1" d="m386.3,875.83v28.2h32.6v-28.2h8.8v67.4h-8.8v-31.6h-32.6v31.6h-8.7v-67.4h8.7Z"/>
    <path class="cls-1" d="m451.5,875.83v67.4h-8.7v-67.4h8.7Z"/>
    <path class="cls-1" d="m513.8,941.03c-3.2,1.6-9.6,3.2-17.8,3.2-19,0-33.3-12-33.3-34.1s14.3-35.4,35.2-35.4c8.4,0,13.7,1.8,16,3l-2.1,7.1c-3.3-1.6-8-2.8-13.6-2.8-15.8,0-26.3,10.1-26.3,27.8,0,16.5,9.5,27.1,25.9,27.1,5.3,0,10.7-1.1,14.2-2.8l1.8,6.9Z"/>
    <path class="cls-1" d="m523.5,932.63c3.9,2.4,9.6,4.4,15.6,4.4,8.9,0,14.1-4.7,14.1-11.5,0-6.3-3.6-9.9-12.7-13.4-11-3.9-17.8-9.6-17.8-19.1,0-10.5,8.7-18.3,21.8-18.3,6.9,0,11.9,1.6,14.9,3.3l-2.4,7.1c-2.2-1.2-6.7-3.2-12.8-3.2-9.2,0-12.7,5.5-12.7,10.1,0,6.3,4.1,9.4,13.4,13,11.4,4.4,17.2,9.9,17.2,19.8,0,10.4-7.7,19.4-23.6,19.4-6.5,0-13.6-1.9-17.2-4.3l2.2-7.3Z"/>
    <path class="cls-1" d="m595.2,876.73c3.8-.8,9.8-1.4,15.9-1.4,8.7,0,14.3,1.5,18.5,4.9,3.5,2.6,5.6,6.6,5.6,11.9,0,6.5-4.3,12.2-11.4,14.8v.2c6.4,1.6,13.9,6.9,13.9,16.9,0,5.8-2.3,10.2-5.7,13.5-4.7,4.3-12.3,6.3-23.3,6.3-6,0-10.6-.4-13.5-.8v-66.3Zm8.7,27.6h7.9c9.2,0,14.6-4.8,14.6-11.3,0-7.9-6-11-14.8-11-4,0-6.3.3-7.7.6v21.7Zm0,32.3c1.7.3,4.2.4,7.3.4,9,0,17.3-3.3,17.3-13.1,0-9.2-7.9-13-17.4-13h-7.2v25.7Z"/>
    <path class="cls-1" d="m662.9,943.23v-28.6l-21.3-38.8h9.9l9.5,18.6c2.6,5.1,4.6,9.2,6.7,13.9h.2c1.9-4.4,4.2-8.8,6.8-13.9l9.7-18.6h9.9l-22.6,38.7v28.7h-8.8Z"/>
    <path class="cls-1" d="m734.1,922.03l-7,21.2h-9l22.9-67.4h10.5l23,67.4h-9.3l-7.2-21.2h-23.9Zm22.1-6.8l-6.6-19.4c-1.5-4.4-2.5-8.4-3.5-12.3h-.2c-1,4-2.1,8.1-3.4,12.2l-6.6,19.5h20.3Zm.1-50.8c0,5-4.1,8.9-9.9,8.9-6.1,0-10-4-10-8.8s3.8-9.1,10-9.1,9.9,4,9.9,9Zm-14.8.1c0,2.5,1.9,5.1,4.8,5.1s4.8-2.4,4.8-5.3-1.9-5.3-4.8-5.3c-3.1,0-4.8,2.6-4.8,5.5Z"/>
    <path class="cls-1" d="m783.2,932.63c3.9,2.4,9.6,4.4,15.6,4.4,8.9,0,14.1-4.7,14.1-11.5,0-6.3-3.6-9.9-12.7-13.4-11-3.9-17.8-9.6-17.8-19.1,0-10.5,8.7-18.3,21.8-18.3,6.9,0,11.9,1.6,14.9,3.3l-2.4,7.1c-2.2-1.2-6.7-3.2-12.8-3.2-9.2,0-12.7,5.5-12.7,10.1,0,6.3,4.1,9.4,13.4,13,11.4,4.4,17.2,9.9,17.2,19.8,0,10.4-7.7,19.4-23.6,19.4-6.5,0-13.6-1.9-17.2-4.3l2.2-7.3Z"/>
    <path class="cls-1" d="m844.6,922.03l-7,21.2h-9l22.9-67.4h10.5l23,67.4h-9.3l-7.2-21.2h-23.9Zm22.1-6.8l-6.6-19.4c-1.5-4.4-2.5-8.4-3.5-12.3h-.2c-1,4-2.1,8.1-3.4,12.2l-6.6,19.5h20.3Z"/>
  </g>
</svg>