<?xml version="1.0" encoding="UTF-8"?>
<svg xmlns="http://www.w3.org/2000/svg" xmlns:xlink="http://www.w3.org/1999/xlink" viewBox="0 0 64 64">
  <defs>
    <style>
      .cls-1 {
        fill: #fff;
      }

      .cls-2 {
        fill: #0e4e4e;
      }

      .cls-3 {
        fill: rgba(114, 170, 170, .25);
      }

      .cls-4 {
        fill: url(#radial-gradient);
      }
    </style>
    <radialGradient id="radial-gradient" cx="40.99" cy="19.33" fx="48.23" fy="10.03" r="33.07" gradientUnits="userSpaceOnUse">
      <stop offset=".11" stop-color="#72aaaa"/>
      <stop offset=".24" stop-color="#608f8f" stop-opacity=".84"/>
      <stop offset="1" stop-color="#000" stop-opacity="0"/>
    </radialGradient>
  </defs>
  <g id="Ellipse_1_Image" data-name="Ellipse 1 Image">
    <g id="Layer_5" data-name="Layer 5">
      <circle class="cls-2" cx="32" cy="32" r="32"/>
      <path class="cls-3" d="m20.47,4.93c-5.5,9.68,9.08,15.91,15.91,21.1,6.98,5.29,16,16.76,24.14,9.48,5.11-4.58.99-21.01-9.59-28.76C40.73-.72,23.83-.98,20.47,4.93Z"/>
      <path class="cls-4" d="m20.47,4.93c-5.5,9.68,9.08,15.91,15.91,21.1,6.98,5.29,16,16.76,24.14,9.48,5.11-4.58.99-21.01-9.59-28.76C40.73-.72,23.83-.98,20.47,4.93Z"/>
    </g>
  </g>
  <g id="github">
    <g id="github-2" data-name="github">
      <g>
        <path class="cls-1" d="m46.78,26.31c1.87-4.56-.58-8.31-.58-8.31-3.81,0-7.25,3.63-7.25,3.63-1.64-.7-3.74-1.05-6.95-1.05s-7.79.35-7.79.35c-1.64-2.57-7.01-2.93-7.01-2.93,0,0-1.17,4.92,0,8.31,0,0-3.2,3.04-3.2,7.83s.63,13.86,18,13.86,18-8.13,18-13.39-3.22-8.3-3.22-8.3Zm-14.78,19.17c-7.55,0-13.32-1.27-13.32-7.62,0-5.86,6.85-6.27,13.63-6.27-.19,0,.19,0,0,0,5.62,0,12.84.17,12.84,6.27s-5.59,7.62-13.14,7.62Z"/>
        <path class="cls-1" d="m25.37,34.19c-1.37,0-2.48,1.6-2.48,3.58s1.11,3.58,2.48,3.58,2.48-1.6,2.48-3.58-1.11-3.58-2.48-3.58Z"/>
        <path class="cls-1" d="m38.51,34.19c-1.37,0-2.48,1.6-2.48,3.58s1.11,3.58,2.48,3.58,2.48-1.6,2.48-3.58-1.11-3.58-2.48-3.58Z"/>
      </g>
    </g>
  </g>
</svg>