<?xml version="1.0" encoding="UTF-8"?>
<svg xmlns="http://www.w3.org/2000/svg" xmlns:xlink="http://www.w3.org/1999/xlink" viewBox="0 0 64 64">
  <defs>
    <style>
      .cls-1 {
        fill: #fff;
      }

      .cls-2 {
        fill: #0e4e4e;
      }

      .cls-3 {
        fill: rgba(114, 170, 170, .25);
      }

      .cls-4 {
        fill: url(#radial-gradient);
      }
    </style>
    <radialGradient id="radial-gradient" cx="40.99" cy="19.33" fx="48.23" fy="10.03" r="33.07" gradientUnits="userSpaceOnUse">
      <stop offset=".11" stop-color="#72aaaa"/>
      <stop offset=".24" stop-color="#608f8f" stop-opacity=".84"/>
      <stop offset="1" stop-color="#000" stop-opacity="0"/>
    </radialGradient>
  </defs>
  <g id="Ellipse_1_Image" data-name="Ellipse 1 Image">
    <g id="Layer_5" data-name="Layer 5">
      <circle class="cls-2" cx="32" cy="32" r="32"/>
      <path class="cls-3" d="m20.47,4.93c-5.5,9.68,9.08,15.91,15.91,21.1,6.98,5.29,16,16.76,24.14,9.48,5.11-4.58.99-21.01-9.59-28.76C40.73-.72,23.83-.98,20.47,4.93Z"/>
      <path class="cls-4" d="m20.47,4.93c-5.5,9.68,9.08,15.91,15.91,21.1,6.98,5.29,16,16.76,24.14,9.48,5.11-4.58.99-21.01-9.59-28.76C40.73-.72,23.83-.98,20.47,4.93Z"/>
    </g>
  </g>
  <g id="github">
    <g id="instagram">
      <path class="cls-1" d="m32,24.92c-3.91,0-7.08,3.17-7.08,7.08s3.17,7.08,7.08,7.08,7.08-3.17,7.08-7.08-3.17-7.08-7.08-7.08Zm0,12.1c-2.78,0-5.03-2.25-5.03-5.03s2.25-5.03,5.03-5.03,5.03,2.25,5.03,5.03-2.25,5.03-5.03,5.03Z"/>
      <path class="cls-1" d="m34.1,18.33h-4.39c-10.04,0-12,2.17-12,12v3.34c0,8.35,2.08,12,12,12h4.39c10.72,0,12-3.21,12-12v-3.34c0-9.79-1.68-12-12-12Zm9.41,15.03c0,7.13-1.04,9.74-9.74,9.74h-3.56c-8.05,0-9.74-2.96-9.74-9.74v-2.71c0-7.98,1.59-9.74,9.74-9.74h3.56c8.37,0,9.74,1.79,9.74,9.74v2.71Z"/>
      <path class="cls-1" d="m39.38,22.96c-.86,0-1.56.7-1.56,1.56s.7,1.56,1.56,1.56,1.56-.7,1.56-1.56-.7-1.56-1.56-1.56Z"/>
    </g>
  </g>
</svg>